<svg xmlns="http://www.w3.org/2000/svg" viewBox="0 0 626.14 626.14"><defs><style>.cls-1{fill:#7ea04d;}.cls-2,.cls-3{fill:#fe7171;}.cls-2,.cls-4{opacity:0.78;}.cls-3,.cls-5{opacity:0.4;}.cls-4,.cls-5{fill:#ffb0b0;}</style></defs><g id="Layer_2" data-name="Layer 2"><g id="Layer_1-2" data-name="Layer 1"><path class="cls-1" d="M626.14,313.05c0,124.27-70.63,231.63-173,282.19a298.55,298.55,0,0,1-132.42,30.9H0V0H320.75C489.41,0,626.14,140.16,626.14,313.05Z"/><path class="cls-2" d="M453.17,595.24a297.94,297.94,0,0,1-91.55,28.11l-4.1-1a418.8,418.8,0,0,0-37.36-63.93c-11.41-16-19.46-24.57-30.75-31.2-7.44-4.37-9.38-3.85-21.08-10.1-15-8-17.15-11.72-32.52-21.52a161.66,161.66,0,0,0-24.45-13.13h0c-5.09-2.28-8.56-4.05-13.76-9.28-7.38-7.42-4.85-8.82-18.45-28.56-13.42-19.46-20.3-29.3-28.35-34.92-15.16-10.59-22.88-6.25-31-17.14-2-2.76-4.59-10.63-9.66-26.37-3.11-9.61-5.53-18.26-6.81-22.84-2.13-7.61-3.2-11.42-4.17-15.59a185.28,185.28,0,0,1-5.28-36.47c-.35-9.28.32-13.25-1.32-22a86.71,86.71,0,0,0-3.73-13.61,14.45,14.45,0,0,1,13-7,14.72,14.72,0,0,1,10.29,5.34l.19.23a10.61,10.61,0,0,1,.86,1.18,54.6,54.6,0,0,0,.44-10.32,55.28,55.28,0,0,0-4.17-18.24,11.27,11.27,0,0,1,4-5.27c4.16-2.89,9.29-1.62,13.18-.66,3,.74,11,2.74,17.14,9.88,5,5.85,6,13.14,7.91,27.46,1.5,11.46.66,12.52,2,23.51,1.75,14.68,5.23,29.39,6.81,29.23,1-.12-.1-6.64,2-18,1.31-7.21,2.29-7.46,5.71-21.31,2.26-9.18,2.68-12.52,2.86-15.37a62.54,62.54,0,0,0-.66-13.63c4.68-.6,16.32-1.41,24.39,5.93,9.72,8.89,8.44,24.41,7.68,33.61-1.11,13.44-5,12.84-4.39,22.86.81,13.42,7.92,16,8.12,31,.11,7.23-1.53,8.79-.22,15.16a34,34,0,0,0,9.45,17.34c4.43,4.28,8.88,6.11,13.41,7.92,10.12,4,13.75,2.14,22.62,5.27,8.47,3,13.9,7.77,17.79,11.2,12.8,11.29,18,25,18.24,25s-7.1-20.34-17.58-39.54c-1.5-2.74-4.77-8.6-3.64-15.41a31.91,31.91,0,0,1,3.64-9.42,43.6,43.6,0,0,1,6.81-7.24c10.11-7.92,19.26-3.94,28.57.87,8.67,4.5,14.63,13.77,26.57,32.3C343.15,397.21,350.48,411,350.48,411c2.46,4.62,2.94,5.77,4.62,8.14C363.59,431.06,376,436.4,381,438.46c10.3,4.27,12.44,2.42,18.24,6.81,3.46,2.61,6.56,6.21,11.21,15.82a144.71,144.71,0,0,1,11,32.08,61.06,61.06,0,0,1,9.9,11.41c7.91,11.9,9,22.84,10.76,35.37C446.53,571,449.82,571.61,453.17,595.24Z"/><path class="cls-3" d="M112.43,253.13s-.81,15.82-.52,18.09-.12,14.5-.06,16.25,4,34,5.12,40.86,4,21.53,4.24,25.27,2.49,16.1,4.69,20.35,4,8.35,6.59,13,12.61,17.52,13.69,19-13.4-13-14.71-16S118,363.7,117.26,360.41s-3.15-27.29-3.66-30.82-3.37-30.69-3.81-35.67-.29-24.39,0-28.34S112.43,253.13,112.43,253.13Z"/><path class="cls-3" d="M157.72,311.16s1.42,14.61.11,19.88-1.32,17.8-2.64,22.41-2.86,18.89-1.32,22.41,12.74,16.47,13.62,21.74,4.18,9.89,7.47,17.14,4.17,9.42,7.25,13.16,5.71,8.15,9,17.15,7.69,20.87,10.76,26.58,9.38,10.83,9.38,10.83-5.86-11.92-8.94-19.83-6.15-20-10.32-24.83-8.79-19.55-11.87-25.7-3.73-9.44-7.69-16-7.24-9-9.44-16.48-3.08-9.23-3.52-14.94,2.2-21.53,2.42-30.31S157.72,311.16,157.72,311.16Z"/><path class="cls-4" d="M453.17,324.9a14.48,14.48,0,0,1-13,7,14.76,14.76,0,0,1-10.29-5.35l-.19-.23a12.14,12.14,0,0,1-.86-1.17,53.74,53.74,0,0,0-.44,10.32,55.15,55.15,0,0,0,4.17,18.23,11.34,11.34,0,0,1-3.95,5.28c-4.16,2.88-9.3,1.61-13.18.65-3-.74-11-2.73-17.14-9.88-5-5.85-6-13.14-7.91-27.46-1.51-11.45-.66-12.52-2-23.51-1.75-14.68-5.24-29.39-6.81-29.22-1.05.12.1,6.64-2,18-1.31,7.22-2.3,7.46-5.71,21.31-2.26,9.19-2.68,12.52-2.86,15.38a62,62,0,0,0,.66,13.63c-4.68.6-16.33,1.4-24.39-5.94-9.72-8.88-8.45-24.41-7.68-33.61,1.11-13.43,5-12.83,4.39-22.85-.81-13.42-7.92-16.05-8.12-31-.11-7.24,1.53-8.79.22-15.16A34.05,34.05,0,0,0,326.64,212c-4.43-4.28-8.88-6.11-13.41-7.91-10.13-4-13.75-2.15-22.62-5.28-8.47-3-13.9-7.76-17.8-11.19-12.79-11.29-18-25-18.23-25,0,.66,7.24,20.58,17.58,39.53,1.5,2.73,4.77,8.6,3.63,15.4a31.65,31.65,0,0,1-3.63,9.42,43.55,43.55,0,0,1-6.81,7.25c-10.11,7.91-19.26,3.93-28.57-.88-8.68-4.5-14.64-13.76-26.57-32.3-11.34-17.62-18.67-31.41-18.67-31.41-2.46-4.62-2.94-5.77-4.62-8.13C178.43,149.55,166,144.2,161,142.14c-10.29-4.26-12.44-2.42-18.23-6.81-3.46-2.61-6.56-6.2-11.21-15.81a145.08,145.08,0,0,1-11-32.08A61.39,61.39,0,0,1,110.69,76c-7.92-11.91-9-22.85-10.76-35.38-3.29-23-6-29.31-8.47-40.65H207.12c5.41,8.78,10.42,16.16,14.74,22.2,11.41,16,19.46,24.56,30.75,31.19,7.44,4.37,9.38,3.85,21.08,10.1,15,8,17.15,11.73,32.52,21.53a160.81,160.81,0,0,0,24.45,13.12h0c5.09,2.29,8.56,4,13.75,9.29,7.38,7.42,4.86,8.81,18.46,28.55,13.42,19.46,20.29,29.31,28.34,34.92,15.16,10.6,22.89,6.25,31,17.14,2.05,2.76,4.59,10.64,9.66,26.37,3.1,9.61,5.52,18.26,6.81,22.84,2.13,7.61,3.2,11.43,4.17,15.6a185.33,185.33,0,0,1,5.27,36.46c.36,9.29-.31,13.25,1.33,22A85.31,85.31,0,0,0,453.17,324.9Z"/><path class="cls-5" d="M429.59,327.48s.81-15.82.51-18.09.13-14.5.07-16.26-3.95-34.05-5.12-40.86-4-21.52-4.25-25.26-2.49-16.11-4.68-20.36-4-8.34-6.59-13-12.62-17.52-13.7-19,13.4,13,14.72,16S424,216.91,424.76,220.2s3.15,27.29,3.66,30.81,3.37,30.7,3.81,35.68.29,24.38,0,28.34S429.59,327.48,429.59,327.48Z"/><path class="cls-5" d="M384.3,269.45s-1.43-14.61-.11-19.89,1.32-17.79,2.64-22.4,2.85-18.89,1.32-22.41S375.4,188.28,374.53,183s-4.18-9.88-7.47-17.13-4.18-9.42-7.25-13.17-5.71-8.14-9-17.15S343.11,114.68,340,109s-9.38-10.82-9.38-10.82,5.86,11.92,8.94,19.83,6.15,20,10.32,24.82,8.79,19.55,11.86,25.7,3.74,9.45,7.69,16,7.25,9,9.45,16.48,3.07,9.22,3.51,14.93-2.19,21.53-2.41,30.32S384.3,269.45,384.3,269.45Z"/></g></g></svg>