<svg xmlns="http://www.w3.org/2000/svg" viewBox="0 0 736.94 688.92"><defs><style>.cls-1{fill:#ffeecf;}.cls-2,.cls-3,.cls-6{fill:#253c78;}.cls-2,.cls-4{opacity:0.78;}.cls-3,.cls-5{opacity:0.4;}.cls-10,.cls-4,.cls-5,.cls-9{fill:#d36582;}.cls-6{font-size:100px;font-family:Montserrat-Bold, Montserrat;font-weight:700;}.cls-7{letter-spacing:-0.01em;}.cls-8{letter-spacing:-0.01em;}.cls-9{letter-spacing:-0.01em;}</style></defs><g id="Layer_2" data-name="Layer 2"><g id="Layer_1-2" data-name="Layer 1"><path class="cls-1" d="M624.4,263.73c0,104.69-59.5,195.14-145.71,237.74a251.66,251.66,0,0,1-111.56,26H96.91V0H367.13C509.21,0,624.4,118.08,624.4,263.73Z"/><path class="cls-2" d="M478.69,501.47a250.93,250.93,0,0,1-77.13,23.67l-3.46-.85a352.34,352.34,0,0,0-31.47-53.86c-9.61-13.46-16.4-20.69-25.91-26.28-6.26-3.68-7.9-3.24-17.75-8.51-12.66-6.76-14.46-9.88-27.4-18.13A136.16,136.16,0,0,0,275,406.45h0a32.51,32.51,0,0,1-11.58-7.82c-6.22-6.25-4.09-7.42-15.55-24.05-11.31-16.4-17.1-24.69-23.88-29.42-12.77-8.93-19.28-5.27-26.1-14.44-1.72-2.33-3.87-9-8.14-22.22-2.61-8.09-4.65-15.38-5.73-19.24-1.8-6.41-2.7-9.63-3.51-13.14A156.09,156.09,0,0,1,176,245.39c-.3-7.82.27-11.16-1.12-18.51a72.76,72.76,0,0,0-3.14-11.46,12.21,12.21,0,0,1,11-5.89,12.4,12.4,0,0,1,8.67,4.5l.16.2a9.88,9.88,0,0,1,.72,1,45.46,45.46,0,0,0,.37-8.69,46.35,46.35,0,0,0-3.51-15.37,9.56,9.56,0,0,1,3.33-4.44c3.5-2.43,7.83-1.36,11.1-.55,2.52.62,9.3,2.3,14.44,8.32,4.19,4.93,5.08,11.07,6.67,23.14,1.26,9.65.55,10.54,1.65,19.8,1.48,12.37,4.41,24.76,5.74,24.62.88-.1-.08-5.59,1.67-15.18,1.1-6.08,1.93-6.28,4.81-18,1.9-7.74,2.26-10.55,2.41-12.95a53,53,0,0,0-.55-11.48c3.93-.51,13.74-1.19,20.54,5,8.19,7.49,7.11,20.57,6.47,28.32-.93,11.32-4.21,10.81-3.7,19.25.68,11.31,6.67,13.52,6.84,26.1.1,6.09-1.29,7.4-.18,12.77a28.63,28.63,0,0,0,8,14.61c3.73,3.61,7.48,5.15,11.29,6.67,8.54,3.4,11.59,1.81,19.06,4.44,7.14,2.5,11.71,6.54,15,9.43a65,65,0,0,1,15.36,21.1c.18-.09-6-17.13-14.8-33.31-1.27-2.31-4-7.25-3.07-13a26.51,26.51,0,0,1,3.07-7.94,36.89,36.89,0,0,1,5.73-6.1c8.52-6.67,16.23-3.31,24.07.74,7.31,3.79,12.33,11.59,22.38,27.21,9.56,14.84,15.73,26.46,15.73,26.46a54.58,54.58,0,0,0,3.9,6.85c7.15,10,17.62,14.55,21.83,16.29,8.67,3.59,10.48,2,15.36,5.73,2.91,2.2,5.53,5.23,9.44,13.32a122,122,0,0,1,9.25,27,51.57,51.57,0,0,1,8.34,9.61c6.66,10,7.55,19.25,9.06,29.81C473.09,481,475.87,481.56,478.69,501.47Z"/><path class="cls-3" d="M191.63,213.25s-.68,13.33-.44,15.24-.1,12.21-.05,13.69,3.32,28.69,4.31,34.42,3.39,18.14,3.58,21.29,2.1,13.57,3.95,17.15,3.39,7,5.55,11,10.62,14.76,11.53,16-11.29-11-12.4-13.45-11.35-22.15-12-24.93-2.66-23-3.09-25.95-2.84-25.86-3.21-30.06-.24-20.54,0-23.87A81.1,81.1,0,0,1,191.63,213.25Z"/><path class="cls-3" d="M229.78,262.14s1.2,12.31.09,16.75-1.11,15-2.22,18.87-2.4,15.92-1.11,18.88S237.28,330.52,238,335s3.51,8.33,6.29,14.44,3.51,7.93,6.1,11.09,4.82,6.86,7.59,14.45,6.48,17.58,9.07,22.39,7.9,9.12,7.9,9.12-4.94-10.05-7.53-16.71-5.18-16.84-8.7-20.91-7.4-16.47-10-21.65-3.15-8-6.48-13.51-6.11-7.59-8-13.88-2.59-7.78-3-12.59,1.85-18.13,2-25.54S229.78,262.14,229.78,262.14Z"/><path class="cls-4" d="M478.69,273.72a12.22,12.22,0,0,1-11,5.88,12.4,12.4,0,0,1-8.67-4.5l-.16-.2a8.11,8.11,0,0,1-.73-1,45.59,45.59,0,0,0-.36,8.7A46.34,46.34,0,0,0,461.29,298a9.51,9.51,0,0,1-3.33,4.44c-3.5,2.43-7.83,1.36-11.1.56-2.52-.63-9.31-2.31-14.44-8.33-4.19-4.93-5.08-11.07-6.67-23.13-1.27-9.65-.55-10.55-1.66-19.81-1.47-12.37-4.41-24.76-5.73-24.62-.89.1.08,5.6-1.67,15.18-1.11,6.08-1.94,6.28-4.81,17.95-1.9,7.74-2.26,10.55-2.41,13a53,53,0,0,0,.55,11.48c-3.94.51-13.75,1.19-20.54-5-8.19-7.49-7.12-20.57-6.47-28.32.93-11.32,4.21-10.81,3.69-19.25-.68-11.31-6.66-13.52-6.84-26.1-.09-6.09,1.29-7.4.19-12.77a28.63,28.63,0,0,0-8-14.61c-3.73-3.6-7.48-5.15-11.3-6.67-8.53-3.39-11.58-1.8-19.05-4.44-7.14-2.5-11.71-6.54-15-9.43C316,148.55,311.57,137,311.38,137c0,.56,6.11,17.35,14.81,33.31,1.27,2.3,4,7.24,3.06,13a26.69,26.69,0,0,1-3.06,7.94,36.89,36.89,0,0,1-5.73,6.1c-8.53,6.67-16.23,3.32-24.07-.74-7.31-3.79-12.33-11.59-22.39-27.21-9.55-14.84-15.73-26.46-15.73-26.46a53.57,53.57,0,0,0-3.89-6.85c-7.15-10-17.63-14.54-21.83-16.28-8.67-3.6-10.48-2-15.36-5.74-2.92-2.2-5.53-5.23-9.44-13.32a122,122,0,0,1-9.25-27,51.57,51.57,0,0,1-8.34-9.61c-6.67-10-7.55-19.24-9.06-29.8C178.32,14.87,176.08,9.56,174,0H271.4c4.56,7.39,8.78,13.61,12.41,18.7,9.62,13.46,16.4,20.69,25.91,26.28,6.27,3.68,7.9,3.25,17.76,8.51,12.66,6.76,14.45,9.88,27.4,18.13a136.16,136.16,0,0,0,20.6,11.06h0a32.51,32.51,0,0,1,11.58,7.82c6.22,6.25,4.09,7.43,15.55,24,11.31,16.4,17.1,24.69,23.88,29.43,12.77,8.92,19.28,5.26,26.09,14.44,1.73,2.32,3.87,9,8.14,22.21,2.62,8.09,4.66,15.38,5.74,19.24,1.8,6.42,2.69,9.63,3.51,13.14a156.09,156.09,0,0,1,4.45,30.72c.3,7.82-.27,11.16,1.11,18.51A71.38,71.38,0,0,0,478.69,273.72Z"/><path class="cls-5" d="M458.82,275.88s.68-13.32.43-15.23.11-12.22.06-13.7S456,218.27,455,212.53s-3.4-18.14-3.58-21.28-2.1-13.58-3.95-17.15-3.39-7-5.55-11-10.63-14.76-11.54-16,11.29,11,12.4,13.45,11.35,22.14,12,24.92,2.65,23,3.08,26,2.84,25.86,3.21,30.05.25,20.54,0,23.88A79.61,79.61,0,0,1,458.82,275.88Z"/><path class="cls-5" d="M420.67,227s-1.21-12.3-.1-16.74,1.11-15,2.23-18.88,2.4-15.92,1.11-18.88-10.74-13.88-11.48-18.32-3.51-8.33-6.29-14.43-3.52-7.94-6.11-11.1-4.81-6.86-7.59-14.44S386,96.62,383.38,91.8s-7.9-9.12-7.9-9.12,4.94,10,7.53,16.71,5.18,16.84,8.69,20.91,7.41,16.48,10,21.66,3.14,7.95,6.47,13.51,6.11,7.58,8,13.88,2.59,7.77,3,12.58-1.85,18.14-2,25.54S420.67,227,420.67,227Z"/><text class="cls-6" transform="translate(0 642.58)">Dona<tspan class="cls-7" x="278.9" y="0">s</tspan><tspan class="cls-8" x="331" y="0">y</tspan><tspan x="389.3" y="0">on.</tspan><tspan class="cls-9" x="550.09" y="0">P</tspan><tspan class="cls-10" x="622.29" y="0">H</tspan></text></g></g></svg>