<svg xmlns="http://www.w3.org/2000/svg" viewBox="0 0 260.64 260.64"><defs><style>.cls-1{fill:#ffeecf;}.cls-2,.cls-3{fill:#253c78;}.cls-2,.cls-4{opacity:0.78;}.cls-3,.cls-5{opacity:0.4;}.cls-4,.cls-5{fill:#d36582;}</style></defs><g id="Layer_2" data-name="Layer 2"><g id="Layer_1-2" data-name="Layer 1"><path class="cls-1" d="M260.64,130.31c0,51.73-29.4,96.42-72,117.47a124.25,124.25,0,0,1-55.12,12.86H0V0H133.52C203.72,0,260.64,58.34,260.64,130.31Z"/><path class="cls-2" d="M188.64,247.78a124.06,124.06,0,0,1-38.11,11.7l-1.71-.42a173.31,173.31,0,0,0-15.55-26.61c-4.75-6.66-8.1-10.23-12.8-13-3.09-1.82-3.9-1.6-8.77-4.2-6.26-3.34-7.14-4.88-13.54-9A66.76,66.76,0,0,0,88,200.83h0A16.08,16.08,0,0,1,82.25,197c-3.07-3.09-2-3.67-7.68-11.88s-8.45-12.2-11.8-14.54c-6.31-4.41-9.52-2.6-12.89-7.13-.86-1.15-1.91-4.43-4-11-1.29-4-2.29-7.6-2.83-9.51-.89-3.17-1.33-4.75-1.73-6.49a77.09,77.09,0,0,1-2.2-15.18c-.15-3.86.13-5.51-.55-9.14A35.65,35.65,0,0,0,37,106.44a6,6,0,0,1,5.43-2.91,6.16,6.16,0,0,1,4.29,2.23l.08.09a4.9,4.9,0,0,1,.35.49,22.11,22.11,0,0,0,.19-4.29,22.8,22.8,0,0,0-1.74-7.59,4.65,4.65,0,0,1,1.65-2.2c1.73-1.2,3.86-.67,5.48-.27a13.22,13.22,0,0,1,7.14,4.11c2.07,2.44,2.5,5.47,3.29,11.43.63,4.77.27,5.21.82,9.79.73,6.11,2.18,12.23,2.83,12.16.44,0,0-2.76.83-7.5.54-3,.95-3.1,2.38-8.87a35.91,35.91,0,0,0,1.19-6.4,26.47,26.47,0,0,0-.28-5.67c2-.25,6.8-.59,10.15,2.47,4,3.7,3.52,10.16,3.2,14-.46,5.59-2.08,5.34-1.83,9.51.34,5.59,3.3,6.68,3.38,12.9,0,3-.63,3.66-.09,6.31a14.26,14.26,0,0,0,3.93,7.22,15.57,15.57,0,0,0,5.59,3.29c4.21,1.68,5.72.89,9.41,2.2a21.4,21.4,0,0,1,7.41,4.66A32.06,32.06,0,0,1,119.65,174a110.47,110.47,0,0,0-7.32-16.46,10,10,0,0,1-1.51-6.41,13.4,13.4,0,0,1,1.51-3.92,18.17,18.17,0,0,1,2.84-3c4.21-3.29,8-1.64,11.89.37,3.61,1.87,6.09,5.73,11.06,13.44,4.72,7.34,7.77,13.08,7.77,13.08a27.16,27.16,0,0,0,1.93,3.38c3.53,5,8.71,7.19,10.78,8.05,4.29,1.77,5.18,1,7.59,2.83,1.44,1.09,2.73,2.58,4.67,6.58a60.77,60.77,0,0,1,4.57,13.36,25.88,25.88,0,0,1,4.12,4.75c3.29,5,3.73,9.51,4.48,14.72C185.87,237.68,187.25,237.94,188.64,247.78Z"/><path class="cls-3" d="M46.8,105.37s-.34,6.58-.21,7.53-.06,6,0,6.77,1.64,14.17,2.13,17,1.68,9,1.77,10.52,1,6.71,1.95,8.47,1.67,3.48,2.74,5.43,5.25,7.29,5.7,7.89-5.58-5.42-6.13-6.64S49.12,151.4,48.81,150s-1.31-11.35-1.52-12.82-1.4-12.78-1.59-14.85-.12-10.15,0-11.8A39.68,39.68,0,0,1,46.8,105.37Z"/><path class="cls-3" d="M65.65,129.53s.6,6.08,0,8.27-.55,7.41-1.1,9.33-1.19,7.86-.55,9.33,5.31,6.85,5.67,9,1.74,4.11,3.11,7.13,1.74,3.92,3,5.48a22.5,22.5,0,0,1,3.75,7.14,109.76,109.76,0,0,0,4.48,11.07,18.13,18.13,0,0,0,3.9,4.5s-2.44-5-3.72-8.25-2.56-8.33-4.3-10.34-3.65-8.14-4.93-10.7-1.56-3.93-3.21-6.67-3-3.75-3.93-6.86-1.28-3.84-1.46-6.22.91-9,1-12.62S65.65,129.53,65.65,129.53Z"/><path class="cls-4" d="M188.64,135.25a6,6,0,0,1-5.43,2.9,6.11,6.11,0,0,1-4.28-2.22l-.08-.1a3.4,3.4,0,0,1-.36-.49,22.32,22.32,0,0,0-.18,4.3,23.07,23.07,0,0,0,1.73,7.59,4.73,4.73,0,0,1-1.64,2.2c-1.73,1.2-3.87.67-5.49.27a13.3,13.3,0,0,1-7.13-4.11c-2.07-2.44-2.51-5.47-3.3-11.44-.62-4.76-.27-5.21-.82-9.78-.72-6.11-2.17-12.24-2.83-12.17-.44,0,0,2.77-.82,7.5-.55,3-1,3.11-2.38,8.87a34.17,34.17,0,0,0-1.19,6.4,26,26,0,0,0,.27,5.68c-1.94.25-6.79.58-10.15-2.47-4-3.7-3.52-10.16-3.2-14,.46-5.6,2.09-5.35,1.83-9.52-.34-5.58-3.29-6.68-3.38-12.89-.05-3,.64-3.66.09-6.31A14.18,14.18,0,0,0,136,88.25a15.71,15.71,0,0,0-5.58-3.3c-4.22-1.67-5.73-.89-9.42-2.19a21.55,21.55,0,0,1-7.41-4.66A32.35,32.35,0,0,1,106,67.68a113,113,0,0,0,7.32,16.46,9.85,9.85,0,0,1,1.51,6.41,12.86,12.86,0,0,1-1.51,3.92,18,18,0,0,1-2.83,3c-4.21,3.3-8,1.64-11.9-.36C95,95.25,92.47,91.39,87.5,83.67c-4.72-7.33-7.77-13.07-7.77-13.07a27.19,27.19,0,0,0-1.92-3.39,24.46,24.46,0,0,0-10.79-8c-4.28-1.78-5.18-1-7.59-2.84-1.44-1.08-2.73-2.58-4.67-6.58A60.2,60.2,0,0,1,50.2,36.4a25.14,25.14,0,0,1-4.12-4.75c-3.3-5-3.74-9.51-4.48-14.73C40.23,7.35,39.12,4.72,38.07,0H86.22c2.25,3.65,4.33,6.73,6.13,9.24,4.75,6.65,8.1,10.22,12.8,13,3.1,1.83,3.91,1.61,8.78,4.21,6.25,3.34,7.14,4.88,13.53,9a67.37,67.37,0,0,0,10.18,5.46h0a16.09,16.09,0,0,1,5.72,3.86c3.07,3.09,2,3.67,7.68,11.89s8.45,12.2,11.8,14.54c6.31,4.41,9.53,2.6,12.9,7.13.85,1.15,1.91,4.43,4,11,1.29,4,2.3,7.6,2.83,9.5.89,3.17,1.33,4.76,1.74,6.5a76.5,76.5,0,0,1,2.19,15.18c.15,3.86-.13,5.51.56,9.14A34.77,34.77,0,0,0,188.64,135.25Z"/><path class="cls-5" d="M178.82,136.32s.34-6.59.22-7.53.05-6,0-6.77-1.64-14.17-2.13-17-1.67-9-1.76-10.51-1-6.71-1.95-8.48-1.68-3.47-2.75-5.42-5.25-7.3-5.7-7.9,5.58,5.43,6.13,6.65,5.61,10.94,5.91,12.31,1.31,11.36,1.53,12.83,1.4,12.78,1.58,14.85.12,10.15,0,11.8A39.68,39.68,0,0,1,178.82,136.32Z"/><path class="cls-5" d="M160,112.16s-.59-6.08,0-8.27.54-7.41,1.09-9.33,1.19-7.87.55-9.33-5.3-6.86-5.67-9-1.73-4.12-3.11-7.13-1.73-3.92-3-5.49A22.43,22.43,0,0,1,146,56.43a112.17,112.17,0,0,0-4.48-11.07,18,18,0,0,0-3.91-4.51s2.44,5,3.72,8.26,2.56,8.32,4.3,10.33,3.66,8.14,4.94,10.7,1.55,3.93,3.2,6.68,3,3.75,3.93,6.86,1.28,3.84,1.46,6.21-.91,9-1,12.62S160,112.16,160,112.16Z"/></g></g></svg>